# xmcd
#
# Track frame offsets:
#	150
#	19400
#	46500
#	74680
#	97147
#	111500
#	135767
#	158500
#	180860
#	200667
#	215750
#	227242
#	260952
#	284140
#	306817
#
# Disc length: 4352 seconds
#
# Revision: 4
# Processed by: cddbd v1.5PL3 Copyright (c) Steve Scherf et al.
# Submitted via: CDex 1.50Beta5
#
DISCID=e410fe0f
DTITLE=Stanton Moore - All Kooked Out
DYEAR=1999
DGENRE=Jazz
TTITLE0=Tchfunkta
TTITLE1=Common Ground
TTITLE2=Green Chimneys
TTITLE3=Blues For Ben
TTITLE4=Kooks On Parade
TTITLE5=Nalgas
TTITLE6=Which Doctor
TTITLE7=Boogaloo Boogie
TTITLE8=Nobodys Blues
TTITLE9=Stanton Hits The Bottle
TTITLE10=Farmstead Antiques
TTITLE11=Angel Nemali
TTITLE12=Honey Island
TTITLE13=Kirotedo
TTITLE14=Obopa Bebop
EXTD=
EXTT0=
EXTT1=
EXTT2=
EXTT3=
EXTT4=
EXTT5=
EXTT6=
EXTT7=
EXTT8=
EXTT9=
EXTT10=
EXTT11=
EXTT12=
EXTT13=
EXTT14=
PLAYORDER=
